PathFileType  4	(X/Y/Z) C:\Users\antoi\Documents\MyRepositories\mobilecap\ResultsAnalysis
DataRate	CameraRate	NumFrames	NumMarkers	Units	OrigDataRate	OrigDataStartFrame	OrigNumFrames
100.0	100.0	5	51	mm	100.0	66	261
Frame#	Time	r_knee			r_shank_antsup			r_ankle			r_calc			r_5meta			r_toe			L_knee			L_shank_antsup			L_ankle			L_calc			L_5meta			L_toe			r_sh2			r_sh3			r_sh4			L_sh2			L_sh3			r_thigh1			r_thigh2			r_thigh3			r_thigh4			r_thigh5			L_thigh1			L_thigh2			L_thigh3			L_thigh4			r.ASIS			r.PSIS			L.ASIS			L.PSIS			C7			R_Shoulder			L_Shoulder			R_Sternum			L_Sternum			R_humerus			R_elbow_med			R_elbow_lat			R_forearm			R_wrist_radius			R_wrist_ulna			L_humerus			L_elbow_med			L_elbow_lat			L_forearm			L_wrist_radius			L_wrist_ulna			R_HJC			L_HJC			R_HJC_reg			L_HJC_reg			
		X1	Y1	Z1	X2	Y2	Z2	X3	Y3	Z3	X4	Y4	Z4	X5	Y5	Z5	X6	Y6	Z6	X7	Y7	Z7	X8	Y8	Z8	X9	Y9	Z9	X10	Y10	Z10	X11	Y11	Z11	X12	Y12	Z12	X13	Y13	Z13	X14	Y14	Z14	X15	Y15	Z15	X16	Y16	Z16	X17	Y17	Z17	X18	Y18	Z18	X19	Y19	Z19	X20	Y20	Z20	X21	Y21	Z21	X22	Y22	Z22	X23	Y23	Z23	X24	Y24	Z24	X25	Y25	Z25	X26	Y26	Z26	X27	Y27	Z27	X28	Y28	Z28	X29	Y29	Z29	X30	Y30	Z30	X31	Y31	Z31	X32	Y32	Z32	X33	Y33	Z33	X34	Y34	Z34	X35	Y35	Z35	X36	Y36	Z36	X37	Y37	Z37	X38	Y38	Z38	X39	Y39	Z39	X40	Y40	Z40	X41	Y41	Z41	X42	Y42	Z42	X43	Y43	Z43	X44	Y44	Z44	X45	Y45	Z45	X46	Y46	Z46	X47	Y47	Z47	X48	Y48	Z48	X49	Y49	Z49	X50	Y50	Z50	X51	Y51	Z51	

66	0.65000000	-1002.69284	719.56403	-422.68227	-1031.53214	689.00136	-397.12717	-1244.31493	412.62359	-458.26828	-1313.01779	374.89106	-510.79049	-1139.44802	345.95598	-413.69446	-1094.65816	361.83592	-467.77861	-1007.88902	716.78131	-724.48219	-1008.18183	631.04277	-736.74287	-1244.68996	414.49488	-702.78167	-1317.50991	378.60419	-653.12964	-1141.74028	349.79599	-728.42857	-1095.92256	363.94734	-673.74611	-1098.61661	594.87053	-395.07059	-973.04956	654.92344	-433.63681	-1042.09661	562.45108	-452.68715	-1071.33449	693.25118	-753.28226	-1147.86709	596.54605	-745.77602	-1082.99041	1003.06552	-472.22850	-1009.26410	919.43367	-456.17270	-1017.36526	891.09878	-394.84199	-1133.55688	975.55299	-376.09803	-1066.35457	880.52276	-371.33334	-1134.48781	1006.01693	-744.47773	-1067.83249	878.78359	-755.98088	-1235.58617	948.31216	-744.67035	-1169.82432	825.66456	-717.95700	-1111.23287	1087.72437	-442.77351	-1267.20200	1197.79502	-521.90235	-1117.88203	1065.37602	-682.00215	-1267.33839	1195.21162	-618.91985	-899.28091	1513.25961	-588.10084	-856.18098	1423.97429	-424.67374	-875.35517	1409.91938	-744.04097	-873.38511	1366.60722	-565.72852	-876.91401	1360.39331	-595.54040	-980.19836	1225.87856	-336.88485	-1084.55400	1183.41329	-361.02829	-1054.38622	1167.92116	-309.23344	-1068.04512	1026.03813	-288.58150	-1077.78069	922.31035	-297.48909	-1115.60833	933.96700	-277.52010	-1001.39229	1218.33043	-825.16685	-1102.34974	1159.17079	-789.05873	-1077.81820	1150.74227	-842.18074	-1098.87203	1013.09859	-869.12139	-1117.80832	906.81570	-862.59946	-1158.59650	919.03603	-873.50274	-1214.59127	1045.56970	-473.98412	-1226.20756	1045.10581	-664.29993	-1208.81537	1044.51626	-474.75143	-1209.03864	1040.29192	-633.33406	
67	0.66000000	-997.55346	717.09340	-423.63856	-1026.48684	686.86328	-397.80822	-1243.34479	414.15519	-458.18272	-1312.44015	376.44498	-510.44672	-1139.21819	345.91575	-413.63941	-1094.25949	361.44754	-467.57988	-1003.19435	713.51798	-723.79423	-1004.33556	628.59925	-736.65742	-1243.82189	415.25320	-702.72354	-1316.95821	379.93148	-653.17125	-1141.60737	349.66636	-728.39654	-1095.48900	363.45391	-673.89197	-1094.74375	593.48804	-395.93678	-968.49951	652.20751	-434.44622	-1038.75953	560.47472	-453.27215	-1066.75392	691.62387	-749.77771	-1144.57681	595.72615	-745.51812	-1077.33022	1001.69151	-470.91490	-1004.22498	917.30901	-456.05562	-1012.43592	888.52542	-395.48515	-1128.10761	971.48655	-376.32139	-1061.35184	877.65463	-371.39471	-1131.19191	1002.24668	-745.41517	-1063.58508	876.13818	-755.39100	-1231.32798	945.68364	-747.11442	-1162.56357	823.97713	-719.59317	-1106.86736	1085.29959	-442.41776	-1263.42416	1194.52525	-521.54549	-1113.68588	1062.93664	-681.65074	-1263.67869	1192.03586	-618.41677	-897.91482	1512.21612	-587.63033	-854.23388	1423.40971	-424.75879	-873.17049	1409.54294	-743.12673	-869.28116	1366.77432	-564.91124	-873.95244	1359.97707	-595.10724	-969.55330	1221.10011	-337.36414	-1071.43877	1172.08240	-361.94325	-1040.53074	1158.59718	-309.43472	-1039.79724	1014.88925	-292.92171	-1037.51407	911.49490	-304.19689	-1077.05220	917.88058	-284.93647	-989.70241	1213.66661	-825.10875	-1087.87713	1147.87216	-789.78297	-1062.24010	1140.89032	-842.45054	-1070.32235	1000.46685	-865.61487	-1078.48546	893.27589	-856.34236	-1120.45884	900.70607	-867.68357	-1210.05680	1042.62880	-473.56858	-1221.84450	1042.10307	-663.87471	-1204.23448	1041.48888	-474.29799	-1204.65066	1037.41299	-632.89041	
68	0.67000000	-992.66944	714.64544	-424.60208	-1021.74517	684.70928	-398.52473	-1242.33445	414.94625	-458.56759	-1311.97029	377.89870	-510.42754	-1139.06671	345.89290	-413.62424	-1093.90893	361.06972	-467.52043	-999.17927	710.13136	-722.14415	-1000.75087	626.04141	-736.33182	-1243.01089	415.86028	-702.58674	-1316.48652	380.95577	-653.11200	-1141.53335	349.50057	-728.31622	-1095.10673	362.95951	-674.18687	-1091.20586	591.91539	-396.99742	-964.08504	649.53132	-435.21052	-1035.61635	558.45725	-454.02965	-1062.22533	689.49045	-746.76932	-1141.29192	594.89556	-745.47982	-1071.30262	1000.74524	-470.01187	-999.63073	914.93248	-456.53454	-1007.93003	886.16079	-396.31215	-1122.62785	967.86137	-376.52113	-1057.26145	874.18815	-372.36802	-1128.81044	998.30445	-747.36155	-1058.26466	874.56302	-754.85973	-1226.35617	942.77015	-744.02152	-1156.49128	822.73332	-723.18951	-1102.07198	1082.95263	-442.68656	-1259.50082	1191.64334	-521.16034	-1109.20796	1061.06723	-681.60576	-1259.80162	1189.32927	-618.12414	-896.74971	1511.88950	-587.21179	-852.33448	1423.72070	-424.93740	-871.08078	1410.09678	-742.31649	-865.50004	1367.54983	-564.39919	-871.10532	1360.28309	-594.77179	-958.60525	1217.45545	-337.83935	-1057.59510	1161.98757	-362.40948	-1025.80225	1150.32672	-309.87896	-1009.20587	1006.64903	-297.72865	-994.66933	904.92062	-311.60687	-1034.83802	905.77069	-292.87551	-977.65518	1210.21611	-825.04962	-1072.03466	1137.58134	-789.70017	-1045.89863	1132.28101	-842.32200	-1039.53993	990.30356	-861.51442	-1036.12164	883.44772	-848.81073	-1078.53201	885.91448	-860.97273	-1205.17426	1039.88105	-473.59546	-1217.26218	1039.66293	-663.88320	-1199.33316	1038.80892	-474.52984	-1199.82461	1035.02954	-632.90070	
69	0.68000000	-988.11574	712.09040	-425.46186	-1017.37374	682.38899	-399.40743	-1241.34896	414.75531	-459.15458	-1311.57599	379.11530	-510.72309	-1139.00653	345.83886	-413.65590	-1093.62314	360.69649	-467.55644	-994.99110	707.60442	-721.10328	-997.42475	623.50140	-735.92909	-1242.27167	416.41113	-702.49570	-1316.04300	381.89625	-652.90990	-1141.45222	349.37585	-728.35330	-1094.75132	362.56780	-674.41075	-1087.91665	590.47505	-397.58323	-960.14925	646.72019	-436.15206	-1032.73814	556.36971	-455.01872	-1057.70982	686.95512	-745.23614	-1138.17451	594.07753	-745.37064	-1066.10547	998.22017	-471.41501	-994.90622	912.67204	-457.48796	-1003.48033	883.74840	-397.42432	-1117.53872	965.41617	-376.63079	-1052.74504	870.85414	-373.78891	-1125.31420	995.35075	-748.26185	-1052.89624	872.83934	-755.20365	-1221.94922	939.64795	-738.77551	-1152.20640	821.26441	-726.23876	-1097.04299	1080.64830	-443.38717	-1255.38743	1189.21285	-520.76609	-1104.80813	1059.30672	-681.62974	-1255.72965	1187.06401	-617.96221	-895.73516	1512.28442	-586.79068	-850.31389	1424.96975	-425.17760	-868.99063	1411.53770	-741.67153	-864.09185	1367.82029	-564.38763	-868.83287	1360.79120	-594.21614	-947.13568	1214.93860	-338.29753	-1042.62282	1153.15628	-362.73511	-1009.90233	1143.29118	-310.45752	-976.62811	1001.90756	-302.79294	-949.63217	903.32584	-319.95754	-989.54132	898.46149	-301.56661	-965.32638	1208.04213	-824.92265	-1054.51177	1128.25243	-789.01699	-1028.72457	1124.93820	-842.01354	-1006.60152	983.13294	-856.85207	-991.06762	878.11758	-839.96001	-1033.34536	875.28134	-852.97800	-1200.23218	1037.42705	-473.76912	-1212.82332	1037.56463	-664.02364	-1194.38139	1036.46783	-475.13982	-1194.93746	1032.97651	-633.05390	
70	0.69000000	-983.90558	709.23678	-426.59632	-1013.40656	680.06979	-400.34265	-1240.65143	415.92130	-459.45412	-1311.26964	379.92575	-510.99997	-1138.98763	345.74409	-413.73538	-1093.40223	360.34476	-467.58298	-990.04020	706.40928	-722.68876	-994.41115	621.08687	-735.51522	-1241.62855	416.93316	-702.45299	-1315.63484	382.77594	-652.80442	-1141.32711	349.28996	-728.49118	-1094.45205	362.22289	-674.40008	-1084.90380	589.09166	-398.00442	-956.75241	643.89777	-437.13020	-1030.20189	554.21380	-456.11451	-1053.66935	684.50343	-744.38249	-1135.52357	593.16855	-745.00288	-1061.40284	995.00412	-473.21513	-989.78904	910.62497	-458.33596	-998.51319	880.77790	-398.64325	-1112.49999	963.49516	-376.79166	-1047.75143	868.13066	-374.68043	-1120.53073	993.36205	-747.94022	-1049.07510	869.93040	-756.23634	-1218.46082	936.99924	-736.10233	-1148.36380	819.24135	-725.39905	-1091.67491	1078.67974	-443.93673	-1250.98462	1187.30444	-520.39589	-1100.30443	1057.70645	-681.20469	-1251.40825	1185.22527	-617.70915	-894.82661	1513.42316	-586.38125	-848.12233	1427.31411	-425.53379	-866.73274	1413.82193	-740.85052	-862.57359	1368.90782	-564.35396	-865.79020	1362.91728	-593.63805	-934.89268	1213.78300	-338.75492	-1026.25499	1145.44505	-363.66705	-992.59243	1137.78385	-311.03563	-942.44914	1001.00826	-308.26120	-903.02053	907.30379	-329.12584	-941.92076	896.65068	-311.08659	-952.79981	1207.24337	-824.59047	-1035.83100	1120.25120	-788.22942	-1010.77571	1119.11103	-841.74913	-971.91313	979.52120	-851.37053	-943.89624	878.23476	-829.94227	-985.45992	869.65298	-843.51936	-1195.13268	1035.48813	-473.64721	-1208.26943	1035.73610	-663.86550	-1189.18817	1034.64982	-475.47328	-1189.87157	1031.28991	-632.74697	
